# xmcd
#
# Track frame offsets: 
#        150
#        21665
#        37535
#        68997
#        85287
#        103672
#        123795
#        140555
#        157070
#        176927
#        202935
#        216785
#        237320
#
# Disc length: 3392 seconds
#
# Revision: 2
# Processed by: cddbd v1.5.2PL0 Copyright (c) Steve Scherf et al.
# Submitted via: ExactAudioCopy v0.99pb4
#
DISCID=b70d3e0d
DTITLE=Bill Wharton And The Ingredients - South Of The Blues
DYEAR=1994
DGENRE=Blues
TTITLE0=Got To Rumba
TTITLE1=She's On Fire
TTITLE2=Hurricane Blues
TTITLE3=Lazarus
TTITLE4=Jones And A Half
TTITLE5=World Full Of Blues
TTITLE6=Swamp Boogie
TTITLE7=Great Big Fannie
TTITLE8=Stir Your Pot
TTITLE9=Cadillac Of A Woman
TTITLE10=Blind Boy Billy
TTITLE11=Doggin' My Cat
TTITLE12=Rockin' Slow
EXTD=
EXTT0=
EXTT1=
EXTT2=
EXTT3=
EXTT4=
EXTT5=
EXTT6=
EXTT7=
EXTT8=
EXTT9=
EXTT10=
EXTT11=
EXTT12=
PLAYORDER=
